<?xml version="1.0" standalone="no"?>
<!DOCTYPE svg PUBLIC "-//W3C//DTD SVG 1.1//EN" "http://www.w3.org/Graphics/SVG/1.1/DTD/svg11.dtd" >
<svg xmlns="http://www.w3.org/2000/svg">
<metadata>
Created by FontForge 20120731 at Fri Jul 28 23:05:56 2017
 By admin
</metadata>
<defs>
<font id="iconfont" horiz-adv-x="1024" >
  <font-face 
    font-family="iconfont"
    font-weight="500"
    font-stretch="normal"
    units-per-em="1024"
    panose-1="2 0 6 3 0 0 0 0 0 0"
    ascent="896"
    descent="-128"
    x-height="792"
    bbox="0 -161 1835 896"
    underline-thickness="0"
    underline-position="0"
    unicode-range="U+0078-EAF2"
  />
<missing-glyph 
 />
    <glyph glyph-name=".notdef" 
 />
    <glyph glyph-name=".notdef" 
 />
    <glyph glyph-name=".null" horiz-adv-x="0" 
 />
    <glyph glyph-name="nonmarkingreturn" horiz-adv-x="341" 
 />
    <glyph glyph-name="x" unicode="x" horiz-adv-x="1001" 
d="M281 543q-27 -1 -53 -1h-83q-18 0 -36.5 -6t-32.5 -18.5t-23 -32t-9 -45.5v-76h912v41q0 16 -0.5 30t-0.5 18q0 13 -5 29t-17 29.5t-31.5 22.5t-49.5 9h-133v-97h-438v97zM955 310v-52q0 -23 0.5 -52t0.5 -58t-10.5 -47.5t-26 -30t-33 -16t-31.5 -4.5q-14 -1 -29.5 -0.5
t-29.5 0.5h-32l-45 128h-439l-44 -128h-29h-34q-20 0 -45 1q-25 0 -41 9.5t-25.5 23t-13.5 29.5t-4 30v167h911zM163 247q-12 0 -21 -8.5t-9 -21.5t9 -21.5t21 -8.5q13 0 22 8.5t9 21.5t-9 21.5t-22 8.5zM316 123q-8 -26 -14 -48q-5 -19 -10.5 -37t-7.5 -25t-3 -15t1 -14.5
t9.5 -10.5t21.5 -4h37h67h81h80h64h36q23 0 34 12t2 38q-5 13 -9.5 30.5t-9.5 34.5q-5 19 -11 39h-368zM336 498v228q0 11 2.5 23t10 21.5t20.5 15.5t34 6h188q31 0 51.5 -14.5t20.5 -52.5v-227h-327z" />
    <glyph glyph-name="jikediancanicon21" unicode="&#xe783;" 
d="M961 638q0 50 -86 81q-76 27 -183 27t-184 -27q-86 -31 -86 -81q0 -6 2 -11q-2 -3 -2 -7v-107q0 -6 2 -11q-2 -4 -2 -7v-58q-42 5 -88 5q-107 0 -183 -27q-86 -31 -86 -81q0 -6 1 -11q-1 -3 -1 -7v-107q0 -6 1 -11q-1 -4 -1 -7v-107q0 -6 1 -11q-1 -4 -1 -7v-107
q0 -51 86 -81q76 -28 183 -28t184 28q85 30 85 81v76q43 -6 89 -6q107 0 183 27q86 31 86 82v107q0 3 -1 6q1 6 1 12v107q0 3 -1 7q1 5 1 11v107q0 3 -1 7q1 5 1 11v107q0 4 -1 7q1 5 1 11v0v0v0zM923 263q0 -10 -15 -22.5t-46 -23.5q-70 -25 -170 -25q-47 0 -90 6q1 5 1 11
v76q43 -6 89 -6q107 0 183 28q29 10 48 23v-67v0v0v0zM566 276v-67q0 -10 -15 -22t-46 -23q-70 -25 -170.5 -25t-170.5 25q-31 11 -46 23t-15 22v67q19 -13 48 -23q76 -27 183 -27t184 27q28 10 48 23v0v0v0zM103 151q19 -13 48 -23q76 -27 183 -27t184 27q28 10 48 23v-67
q0 -10 -15 -22.5t-46 -23.5q-70 -25 -170.5 -25t-170.5 25q-31 11 -46 23.5t-15 22.5v67v0v0v0zM923 513q0 -10 -15 -22t-46 -23q-70 -26 -170 -26q-101 0 -171 26q-31 11 -46 23t-15 22v67q20 -13 48 -23q77 -27 184 -27t183 27q29 10 48 23v-67v0v0v0zM521 683
q70 25 170.5 25t170.5 -25q31 -11 46 -23.5t15 -21.5t-15 -21.5t-46 -23.5q-70 -25 -170 -25q-101 0 -171 25q-31 11 -46 23.5t-15 21.5t15 21.5t46 23.5v0v0v0zM460 455q20 -13 48 -23q77 -27 184 -27t183 27q29 10 48 23v-67q0 -10 -15 -22.5t-46 -23.5q-70 -25 -170 -25
q-47 0 -90 6q1 5 1 11q0 50 -85 81q-26 9 -58 16v24v0v0v0zM164 379q70 26 170.5 26t170.5 -26q31 -11 46 -23t15 -21.5t-15 -22t-46 -23.5q-70 -25 -170.5 -25t-170.5 25q-31 11 -46 23.5t-15 22t15 21.5t46 23v0v0v0zM505 -87q-70 -25 -170.5 -25t-170.5 25
q-31 11 -46 23.5t-15 22.5v67q19 -13 48 -23q76 -28 183 -28t184 28q28 10 48 23v-67q0 -10 -15 -22.5t-46 -23.5v0v0v0zM862 92q-70 -25 -170 -25q-47 0 -90 6q1 5 1 11v76q43 -6 89 -6q107 0 183 28q29 10 48 23v-67q0 -10 -15 -22.5t-46 -23.5v0v0v0zM862 92zM334 -154
q-108 0 -185 27q-89 32 -89 86v107q0 3 1 7q-1 5 -1 11v107q0 3 1 7q-1 5 -1 11v107q0 4 1 7q-1 5 -1 11q0 54 89 86q77 27 185 27q43 0 84 -5v53q0 3 1 7q-1 5 -1 11v107q0 4 1 7q-1 6 -1 11q0 54 89 86q77 27 184.5 27t185.5 -27q89 -32 89 -86q0 -6 -1 -11q1 -3 1 -7
v-107q0 -6 -1 -11q1 -3 1 -7v-107q0 -6 -1 -11q1 -4 1 -7v-108q0 -5 -1 -10q1 -4 1 -7v-108q0 -53 -89 -85q-78 -28 -185 -28q-43 0 -84 5v-70q0 -54 -89 -86q-77 -27 -185 -27zM334 438q-106 0 -182 -27q-82 -30 -82 -77q0 -5 1 -10v-2v-1q-1 -2 -1 -5v-107q0 -5 1 -10v-2
v-1q-1 -3 -1 -5v-107q0 -5 1 -10v-2v-1q-1 -3 -1 -5v-107q0 -47 82 -77q76 -27 182.5 -27t181.5 27q83 30 83 77v81l5 -1q42 -5 88 -5q106 0 181 27q83 29 83 77v107q0 2 -1 5v1v1q1 5 1 11v107q0 2 -1 5v1v2q1 5 1 10v107q0 3 -1 5v1v2q1 5 1 10v107q0 3 -1 5v1v2q1 5 1 10
q0 47 -82 77q-76 27 -182 27t-182 -27q-83 -30 -83 -77q0 -5 1 -10l1 -2l-1 -1q-1 -2 -1 -5v-107q0 -5 1 -10l1 -2l-1 -1q-1 -2 -1 -5v-64l-5 1q-42 6 -88 6zM334 -117q-101 0 -172 26q-33 11 -48.5 24.5t-15.5 25.5v76l8 -5q18 -13 46 -23q76 -27 182 -27t182 27
q28 10 47 23l7 5v-76q0 -11 -15.5 -25t-48.5 -25q-71 -26 -172 -26zM108 17v-58q0 -5 4.5 -10.5t18 -14.5t34.5 -16q69 -25 169 -25t169 25q21 7 35 16t18.5 14.5t4.5 10.5v58q-18 -10 -42 -19q-77 -27 -185 -27t-185 27q-24 9 -41 19zM334 9q-101 0 -172 25
q-33 12 -48.5 25.5t-15.5 24.5v76l8 -5q18 -13 46 -23q76 -27 182 -27t182 27q28 10 47 23l7 5v-76q0 -11 -15.5 -24.5t-48.5 -25.5q-71 -25 -172 -25zM108 142v-58q0 -4 4.5 -10t18 -15t34.5 -16q70 -25 169.5 -25t168.5 25q21 7 35 16t18.5 15t4.5 10v58q-18 -10 -42 -19
q-77 -27 -184.5 -27t-185.5 27q-24 9 -41 19zM692 62q-47 0 -90 6l-5 1l1 5q1 5 1 10v81h5q42 -6 88 -6q106 0 182 27q28 10 46 23l8 5v-77q0 -11 -15.5 -24.5t-48.5 -24.5q-71 -26 -172 -26zM608 77q40 -5 84 -5q100 0 169 25q21 7 34.5 16t18 14.5t4.5 9.5v59
q-17 -10 -41 -19q-78 -28 -185 -28q-43 0 -84 5v-70v-7zM334.5 134q-101.5 0 -172.5 25q-33 12 -48.5 25.5t-15.5 24.5v76l8 -5q19 -12 46 -22q76 -27 182 -27t182 27q28 9 47 22l7 5v-76q0 -11 -15.5 -24.5t-48.5 -25.5q-70 -25 -171.5 -25zM108 267v-58q0 -4 4.5 -10
t18 -14.5t34.5 -16.5q69 -25 169 -25t169 25q21 8 35 16.5t18.5 14.5t4.5 10v58q-18 -10 -42 -19q-77 -27 -184.5 -27t-185.5 27q-23 9 -41 19zM692 187q-47 0 -90 6l-5 1l1 5q1 5 1 10v81h5q42 -6 88 -6q106 0 182 27q28 10 46 23l8 5v-76q0 -12 -15.5 -25.5t-48.5 -24.5
q-71 -26 -172 -26zM608 202q40 -5 84 -5q99 0 169 25q21 7 34.5 16t18 14.5t4.5 10.5v58q-17 -10 -41 -19q-78 -27 -185 -27q-44 0 -84 4v-70v-7zM334.5 259q-101.5 0 -172.5 25q-33 12 -48.5 25.5t-15.5 24.5t15.5 24.5t48.5 25.5q71 25 172 25t172 -25q33 -12 48.5 -25.5
t15.5 -24.5t-15.5 -24.5t-48.5 -25.5q-70 -25 -171.5 -25zM334.5 400q-99.5 0 -169.5 -25q-21 -8 -34.5 -16.5t-18 -14.5t-4.5 -10t4.5 -10t18 -14.5t34.5 -16.5q69 -24 169 -24t169 24q21 8 35 16.5t18.5 14.5t4.5 10t-4.5 10t-18.5 14.5t-35 16.5q-69 25 -168.5 25z
M692 312q-47 0 -90 7h-5l1 5q1 5 1 10q0 47 -83 77q-26 9 -57 15l-3 1v37l7 -5q19 -13 47 -23q75 -27 181.5 -27t182.5 27q28 10 46 23l8 5v-76q0 -11 -15.5 -24.5t-48.5 -25.5q-71 -26 -172 -26zM608 327q41 -5 84 -5q99 0 169 25q21 7 34.5 16t18 14.5t4.5 10.5v58
q-17 -10 -41 -19q-77 -27 -185 -27t-185 27q-24 9 -42 19v-11q30 -7 54 -15q89 -32 89 -86v-7zM691.5 438q-101.5 0 -172.5 25q-32 12 -47.5 25.5t-15.5 24.5v76l7 -5q19 -13 47 -23q76 -27 182 -27t181 27q29 11 47 23l8 5v-76q0 -11 -15.5 -24.5t-48.5 -25.5
q-71 -25 -172.5 -25zM465 571v-58q0 -4 4.5 -10t18.5 -14.5t35 -16.5q69 -25 168.5 -25t169.5 25q21 8 34.5 16.5t18 14.5t4.5 10v58q-17 -10 -41 -19q-78 -27 -185.5 -27t-184.5 27q-24 9 -42 19zM691.5 563q-101.5 0 -172.5 25q-32 12 -47.5 25.5t-15.5 24.5t15.5 24.5
t47.5 25.5q71 25 172.5 25t172.5 -25q33 -12 48.5 -25.5t15.5 -24.5t-15.5 -24.5t-48.5 -25.5q-71 -25 -172.5 -25zM691.5 704q-99.5 0 -168.5 -25q-21 -8 -35 -16.5t-18.5 -14.5t-4.5 -10t4.5 -10t18.5 -14.5t35 -16.5q69 -25 168.5 -25t169.5 25q21 8 34.5 16.5t18 14.5
t4.5 10t-4.5 10t-18 14.5t-34.5 16.5q-70 25 -169.5 25z" />
    <glyph glyph-name="shoukuan" unicode="&#xe691;" 
d="M937 653q0 39 -125 67.5t-301 28.5t-301 -28.5t-125 -67.5v0v-479q10 -51 50 -102t92.5 -89t109.5 -68t103.5 -45.5t70.5 -15.5t70 15.5t103 45.5t110 68t93 89t50 102v0v479v0zM681 344v-64h-127v-64h127v-64h-127v-85h-86v85h-127v64h127v64h-127v64h127l-149 213h85
l107 -149l107 149h85l-149 -213h127v0z" />
    <glyph glyph-name="bangzhu" unicode="&#xe609;" 
d="M512 -161q-94 0 -179 36.5t-147 98.5t-98.5 147t-36.5 179t36.5 179t98.5 147t147 98.5t179 36.5t179 -36.5t147 -98.5t98.5 -147t36.5 -179t-36.5 -179t-98.5 -147t-147 -98.5t-179 -36.5zM512 699q-108 0 -200 -53.5t-145.5 -145.5t-53.5 -200t53.5 -200t145.5 -145.5
t200 -53.5t200 53.5t145.5 145.5t53.5 200t-53.5 200t-145.5 145.5t-200 53.5zM604 287l-24 -19q-19 -15 -25 -35q-4 -12 -5 -39h-90q2 56 10.5 77.5t44.5 49.5l24 19q12 9 20 20q13 18 13 40q0 26 -15 46.5t-54 20.5q-38 0 -54.5 -25.5t-16.5 -53.5h-96q4 95 66 135
q40 25 97 25q75 0 125 -36t50 -106q0 -44 -22 -73q-12 -18 -48 -46zM557 52h-99v96h99v-96z" />
    <glyph glyph-name="shouxu" unicode="&#xe7a8;" 
d="M801 613h-199q-8 60 -53.5 100.5t-106.5 40.5h-167q-68 0 -115.5 -47.5t-47.5 -115.5v-89v-78v-467q0 -46 32.5 -78.5t78.5 -32.5h578q46 0 78.5 32.5t32.5 78.5v545q0 46 -32.5 78.5t-78.5 32.5zM156 590v1h1zM868 -43q0 -28 -19.5 -47.5t-47.5 -19.5h-525
q-28 0 -47.5 19.5t-19.5 47.5v467v78q0 27 19.5 47t47.5 20h525q28 0 47.5 -20t19.5 -47v-545zM347 433h436v-70h-436v70zM347 265h436v-71h-436v71zM347 96h436v-70h-436v70z" />
    <glyph glyph-name="buchongiconsvg02" unicode="&#xe65c;" horiz-adv-x="1025" 
d="M912 583q-33 70 -94 124q-60 53 -138 83q-80 30 -168 30t-169 -30q-78 -30 -138 -83q-61 -54 -94 -124q-35 -73 -35 -153q0 -139 97 -246l-35 -153h-1q-5 -24 13 -40q11 -11 27 -11q6 0 11 1q2 1 3 1l158 69q9 5 13 14.5t-0.5 19.5t-14 14t-19.5 -1l-136 -60l34 148
q4 13 -6 23q-92 95 -92 221q0 92 51.5 170t139.5 123.5t192.5 45.5t193 -45.5t140 -123.5t51.5 -170t-51.5 -170.5t-140 -123.5t-192.5 -45q-42 0 -83 7q-10 2 -19 -3.5t-11 -16t4 -19.5t16 -11q46 -9 93 -9q88 0 168 31q78 29 138 83q61 54 94 124q35 73 35 153t-35 153z
M342.5 492q-22.5 0 -38.5 -16t-16 -38.5t16 -38.5t38.5 -16t38.5 16t16 38.5t-16 38.5t-38.5 16zM567 437.5q0 22.5 -16 38.5t-39 16t-39 -16t-16 -38.5t16 -38.5t39 -16t39 16t16 38.5zM736 437.5q0 22.5 -16 38.5t-38.5 16t-38.5 -16t-16 -38.5t16 -38.5t38.5 -16t38.5 16
t16 38.5z" />
    <glyph glyph-name="xiayiye" unicode="&#xe623;" 
d="M816 383l-271 -271v0l-17 -17q-9 -10 -23 -10t-23.5 10t-9.5 23.5t10 23.5l241 241l-242 242q-10 10 -10 23.5t9.5 23t23.5 9.5t23 -9l27 -27v0l262 -262v0zM552 383l-271 -271v0l-17 -17q-9 -10 -23 -10t-23.5 10t-9.5 23.5t10 23.5l241 241l-242 242q-10 10 -10 23.5
t9.5 23t23.5 9.5t23 -9l27 -27v0l262 -262v0zM552 383z" />
    <glyph glyph-name="dianhua" unicode="&#xe604;" 
d="M699 197q-70 68 -125 68q-25 0 -44 -13l-30 -23q-36 8 -71.5 38t-61.5 75.5t-34.5 91t2.5 80.5l35 15q33 15 43.5 56.5t-3.5 104.5q-6 29 -17.5 60t-29.5 62.5t-44 52t-55 20.5q-12 0 -24 -3l-59 -19q-37 -13 -63.5 -42.5t-34.5 -68.5q-24 -113 4.5 -247t103.5 -264.5
t177 -222t212 -127.5q23 -7 46 -7q57 0 99 38l46 41q43 39 15 111q-23 62 -87 123zM737 0l-46 -41q-27 -26 -65 -26q-16 0 -30 5q-102 34 -196.5 119.5t-165.5 208t-98 247t-5 229.5q6 26 23.5 45.5t42.5 27.5l58 19q5 2 9 2q28 0 56.5 -48.5t41.5 -107.5q9 -42 5.5 -70.5
t-17.5 -34.5l-53 -24l-1 -3q-22 -46 -14.5 -108t42.5 -122.5t85 -98t101 -41.5l3 -1l47 34q5 4 14 4q34 0 90 -53t76 -105q15 -41 -3 -57zM906 624q-41 81 -109 139t-154 86q-4 1 -7 1q-19 0 -24 -17q-3 -10 1.5 -19t14.5 -12q77 -25 137.5 -77t97 -124t42.5 -151.5
t-19 -155.5q-3 -10 1.5 -19t14.5 -13q3 -1 7 -1q19 0 24 17q28 87 21 176t-48 170zM597 706q-4 2 -8 2q-18 0 -24 -18q-3 -9 1.5 -18.5t14.5 -12.5q100 -32 147 -125.5t15 -193.5q-3 -9 1.5 -18.5t14.5 -12.5q4 -1 8 -1q18 0 23 17q39 119 -18 231q-27 54 -72.5 92.5
t-102.5 57.5zM535 516q40 -13 59 -51t6 -78q-3 -10 1.5 -19t14.5 -12q4 -2 8 -2q18 0 23 18q20 59 -8.5 115.5t-88.5 75.5q-4 2 -8 2q-18 0 -23 -17q-4 -10 1 -19.5t15 -12.5z" />
    <glyph glyph-name="shenqing" unicode="&#xe673;" 
d="M237 376h383q9 0 15 6t6 15t-6 15t-15 6h-383q-8 0 -14.5 -6t-6.5 -15t6.5 -15t14.5 -6v0zM237 376zM423 319h-186q-8 0 -14.5 -6t-6.5 -15t6.5 -15.5t14.5 -6.5h186q9 0 15.5 6.5t6.5 15.5t-6.5 15t-15.5 6v0zM423 319zM237 473h287q8 0 14.5 6.5t6.5 15t-6.5 15
t-14.5 6.5h-287q-8 0 -14.5 -6.5t-6.5 -15t6.5 -15t14.5 -6.5v0zM237 473zM407 584q9 0 15.5 6t6.5 15t-6.5 15t-15.5 6h-170q-8 0 -14.5 -6t-6.5 -15t6.5 -15t14.5 -6h170v0zM407 584zM394 46v0h-1h-248q-7 0 -12.5 5t-5.5 12v643q0 7 5.5 12t12.5 5h462h34h82q7 0 12.5 -5
t5.5 -12v-176v0q0 -15 10.5 -25t25 -10t25 10t10.5 25v3v173q0 36 -26 62.5t-63 26.5h-82h-34h-462q-37 0 -63 -26.5t-26 -62.5v-642q0 -37 26 -63t63 -26h249v0q15 0 25.5 10.5t10.5 25t-10.5 25t-25.5 10.5v0zM394 46zM853 499l-54 -49l116 -105l54 49zM853 499zM489 169
l-33 -135l149 30l13 12l-116 105zM489 169zM522 199l116 -105l264 239l-116 105zM522 199z" />
    <glyph glyph-name="renminbi" unicode="&#xe619;" 
d="M523.5 821q-91.5 0 -175 -36t-144 -96t-96 -143.5t-35.5 -175.5t35.5 -175t96 -143.5t143.5 -96t175 -35.5t175.5 35.5t143.5 96t96 144t36 175t-36 175t-96 144t-143.5 96t-175 35.5zM730 395q2 -13 2 -27q0 -17 -2 -31h-162v-74h162q2 -13 2 -27q0 -18 -2 -31h-162
v-133q-13 -2 -22 -2q-14 -1 -21.5 -1t-21.5 1q-8 0 -21 2v133h-156q-3 11 -3 28q0 6 1 15q0 6 2 15h156v74h-156q-3 12 -3 29q0 5 1 15q0 5 2 14h122l-155 274q13 2 24 2q17 1 24 1q8 0 25 -1q10 0 23 -2l138 -255l136 255q15 2 23 2q15 1 23 1q7 0 24 -1q8 0 22 -2
l-153 -274h128v0z" />
    <glyph glyph-name="caidan-copy" unicode="&#xe601;" horiz-adv-x="1463" 
d="M73 896h1317q30 0 51.5 -21.5t21.5 -51.5t-21.5 -51.5t-51.5 -21.5h-1317q-30 0 -51.5 21.5t-21.5 51.5t21.5 51.5t51.5 21.5zM73 457h1317q30 0 51.5 -21.5t21.5 -51.5t-21.5 -51.5t-51.5 -21.5h-1317q-30 0 -51.5 21.5t-21.5 51.5t21.5 51.5t51.5 21.5zM73 18h1317
q30 0 51.5 -21.5t21.5 -51.5t-21.5 -51.5t-51.5 -21.5h-1317q-30 0 -51.5 21.5t-21.5 51.5t21.5 51.5t51.5 21.5z" />
    <glyph glyph-name="xingming" unicode="&#xe63a;" 
d="M520.5 672q-75.5 0 -129.5 -53.5t-54 -129t54 -129t129.5 -53.5t129 53.5t53.5 129t-53.5 129t-129 53.5zM859.5 731.5q-69.5 69.5 -159.5 106.5t-188 37t-188 -37t-159.5 -106.5t-106.5 -159.5t-37 -188q0 -116 52 -220q50 -99 138 -168l13 -10v-0.5v-0.5q8 -6 18 -13
l2 -1v0q120 -84 268 -84q160 0 287 97v-1l31 27q83 70 128 168t45 206q0 98 -37 188t-106.5 159.5zM832 67q-22 102 -110 168.5t-201 66.5q-130 0 -223 -84q-76 -69 -91 -165q-70 64 -107.5 150t-37.5 181q0 91 35.5 174.5t96 144t144 96t174.5 35.5t174.5 -35.5t144 -96
t96 -144t35.5 -174.5q0 -89 -34 -171.5t-96 -145.5z" />
    <glyph glyph-name="weixin" unicode="&#xe605;" 
d="M795 328q14 0 23 -8.5t9 -22.5t-9 -22.5t-23 -8.5t-22.5 8.5t-8.5 22.5t8.5 22.5t22.5 8.5zM646 297q0 -14 -8.5 -22.5t-22.5 -8.5q-15 0 -26.5 8.5t-11.5 22.5t9 22.5t23 8.5t25.5 -9t11.5 -22zM609 621q22 0 39 -15.5t17 -34.5q0 -23 -16 -36.5t-40 -13.5
q-23 0 -36.5 15t-13.5 35q0 19 15.5 34.5t34.5 15.5zM316 621q22 0 36 -15t14 -35q0 -22 -15 -36t-35 -14q-22 0 -36 15t-14 35t14 35t36 15zM428 241q0 107 80.5 181t193.5 74q62 0 125 -31q-7 89 -59.5 162t-137.5 114.5t-183 41.5q-101 3 -187.5 -42.5t-136.5 -125.5
t-50 -175q0 -61 22.5 -118.5t64.5 -99.5l-68 -149l174 62q112 -37 187 -37h19q-44 76 -44 143v0zM509 54q-9 0 -28 -3t-28 -3q-94 0 -187 37l-255 -87l99 218q-81 99 -81 224q0 107 56.5 197.5t153.5 142.5t213.5 52t214 -52t153.5 -142.5t56 -197.5v0q106 -85 106 -199
q0 -67 -43 -143l74 -162l-193 68q-50 -25 -112 -25q-125 10 -199 75v0zM702 453q-98 0 -164 -61.5t-66 -150.5q0 -88 68 -150t162 -62q37 0 112 25l106 -37l-37 87q56 67 56 131q0 92 -69 155t-168 63v0z" />
    <glyph glyph-name="jiantou-copy" unicode="&#xe613;" 
d="M533 -8q9 -9 9 -22.5t-9 -22.5v0q-9 -9 -22.5 -9t-22.5 9l-317 317q-9 9 -9 22.5t9 22.5v0q9 9 22.5 9t22.5 -9zM808 309q9 9 22.5 9t22.5 -9v0q9 -9 9 -22.5t-9 -22.5l-317 -317q-9 -9 -22.5 -9t-22.5 9v0q-9 9 -9 22.5t9 22.5z" />
    <glyph glyph-name="fabuxuqiu" unicode="&#xe627;" 
d="M316 251q-13 0 -22 9t-9 21.5t9 22t22 9.5h377q13 0 22 -9.5t9 -22t-9 -21.5t-22 -9h-377v0zM311 84q-12 0 -21 9t-9 22t9 22t21 9h377q13 0 22 -9t9 -22t-9 -22t-22 -9h-377v0zM144 -128q-39 0 -61 23t-22 61v824q0 39 21 65t64 26h531q20 0 29.5 -18.5t-2.5 -35.5
q-10 -13 -27 -13h-443h-48h-25h-20h-13v-865h771v13v52v1v18.5v21.5v489q0 17 14 27q9 7 20 7q13 0 23 -9.5t10 -24.5v-582q0 -38 -16 -57q-19 -23 -64 -23h-742v0zM824 842l8 10q16 19 21 25q14 16 37 16q11 0 23 -4q12 -5 27 -17.5t23 -26.5q18 -31 -1 -56
q-11 -15 -19 -25l-7 -9l-112 87v0zM614 424q-9 0 -15 6q-7 7 -6 23q0 13 5.5 46.5t8.5 43.5q5 16 14 29q11 14 178 236l7 9l111 -87l-7 -9q-169 -225 -175 -233q-10 -13 -22.5 -21.5t-43.5 -23t-44 -18.5q-6 -1 -11 -1v0v0z" />
    <glyph glyph-name="fangkuanqueren" unicode="&#xe60c;" 
d="M813 737q0 11 -8 19t-19 8h-627q-11 0 -19 -8t-8 -19v-708q0 -12 8 -20t19 -8h273v-54h-300q-23 0 -38.5 16t-15.5 38v763q0 22 15.5 38t38.5 16h681q22 0 38 -16t16 -38v-245h-54v218v0zM658 435q0 10 -7 16.5t-16 6.5h-137v42l141 139v0q2 4 2 9q1 10 -6 17q-6 7 -17 7
q-9 0 -15 -5l-127 -126l-135 132v0q-5 4 -14 4q-11 0 -17 -6q-11 -13 -2 -27l2 -4l143 -139v-43l-143 -1h-1v0q-16 -5 -16 -21.5t16 -21.5l3 -2h140v-70l-143 -1v0v0q-16 -5 -16 -21.5t16 -21.5l3 -2h140v-45v0l46 91v70l96 1l6 2.5t14 5.5t17 6.5t16.5 5.5t10.5 2v0z
M720 407q-94 0 -160 -66.5t-66 -160t66 -160t160 -66.5t160 66.5t66 160t-66 160t-160 66.5v0zM856 215l-138 -138q-9 -9 -22.5 -9t-22.5 9l-92 92q-9 9 -9 22.5t9.5 23t23 9.5t22.5 -9l69 -69l114 114q9 10 22.5 10t23 -9.5t9.5 -23t-9 -22.5v0z" />
    <glyph glyph-name="caidantubiao-03" unicode="&#xe634;" 
d="M51 -26h917v-102h-917v102zM901 251h-225q-36 45 -36 82q-3 34 8.5 67t30.5 61.5t38 57.5t32.5 67.5t13.5 79.5q0 98 -70 164t-186 66t-186 -66t-70 -164q0 -43 13.5 -81.5t32.5 -67.5t37.5 -57t30.5 -60.5t9 -66.5q0 -37 -36 -82h-225q-27 0 -47 -20t-20 -47v-138h927
v138q0 28 -21 47.5t-51 19.5z" />
    <glyph glyph-name="rongzi" unicode="&#xe649;" 
d="M520.5 336q97.5 0 166.5 69t69 166.5t-69 166t-166.5 68.5t-166.5 -68.5t-69 -166t69 -166.5t166.5 -69zM435 554q-8 1 -12.5 6t-5.5 13q1 7 5.5 12t12.5 5h43l-40 71q-3 4 -6 9.5t-2 11.5q1 9 5.5 14t16.5 7q8 -1 13.5 -5.5t9.5 -9.5l45 -83l51 84q3 5 9 9t13 5
q5 0 8.5 -1t6.5 -3t5 -6t3 -11q0 -8 -6 -16l-47 -76h44q8 0 12.5 -5t5.5 -12q-1 -8 -5.5 -13.5t-12.5 -6.5h-58v-18h58q8 -1 12.5 -6.5t5.5 -12.5q-1 -8 -5.5 -13.5t-12.5 -5.5h-58v-32q-1 -25 -28 -25q-13 0 -20.5 6t-7.5 19v32h-58q-8 0 -12.5 6t-5.5 14q1 7 5.5 12
t12.5 6h58v19h-58zM951 267q-31 40 -106 -4q4 18 -7.5 29.5t-30.5 11.5q-41 0 -67 -25q-22 27 -46 26t-68 -28q-35 -22 -55 -33q-4 -2 -10 -6q10 -2 17 -2h39t33 -2t30 -6.5t21 -11.5t15.5 -19.5t4.5 -28.5q0 -25 -17.5 -41.5t-37.5 -22t-39 -5.5h-149q-27 0 -57 15.5
t-47 31.5l-16 16q70 -29 120 -29h148q2 0 7 0.5t14.5 2.5t18 5.5t15 10.5t6.5 16q0 21 -20 27.5t-89 6.5q-27 0 -57 8.5t-47 17.5l-17 9q-61 44 -79 56q-22 13 -27.5 16.5t-24 11.5t-30.5 8.5t-32.5 -2t-42.5 -11.5t-61 -26t-67 -29.5l-28 -12.5l98 -217l51 32
q21 14 36 14.5t43 -12.5q163 -83 168 -85q20 -10 38 -14t30 -4.5t27.5 4.5t21.5 8t21.5 12.5t19.5 11.5q23 13 149.5 95.5t149.5 99.5q59 41 33 74z" />
    <glyph glyph-name="xin" unicode="&#xe602;" 
d="M510 783q82 0 156 -31q72 -31 128 -86q55 -56 86 -128q31 -74 31 -155.5t-31 -155.5q-31 -72 -86 -128q-56 -55 -128 -86q-74 -31 -155.5 -31t-156.5 31q-71 31 -127 86q-55 56 -86 128q-31 74 -31 155.5t31 156.5q30 71 86 127q55 55 127 86q75 31 156 31zM510.5 823
q-89.5 0 -171.5 -34.5t-141 -93.5t-93.5 -141t-34.5 -171.5t34.5 -171t93.5 -140.5t141 -94t171.5 -35t171 35t140.5 94t94 140.5t35 171t-35 171.5t-94 141t-140.5 93.5t-171 34.5zM222 374q78 116 117 257l42 -12q-23 -72 -51 -132v-382h-39v304q-24 -42 -52 -79
q-9 23 -17 44zM376 559h174q-16 27 -34 55l36 18q19 -29 38 -60l-24 -13h185v-37h-376zM405 472h314v-36h-314v36zM405 386h314v-36h-314v36zM411 300h303v-195h-41v32h-221v-32h-41v195zM673 264h-221v-91h221v91z" />
    <glyph glyph-name="liaotian" unicode="&#xe603;" 
d="M512 728q-92 0 -170 -45t-123.5 -122t-45.5 -168t45.5 -168t123.5 -122t170 -45t170 45t123.5 122t45.5 168t-45.5 168t-123.5 122t-170 45v-41q124 0 211 -86t87 -208t-87 -208t-211 -86t-211 86t-87 208t87 208t211 86v41zM661 45q105 44 169.5 139t64.5 209
q0 103 -51.5 189.5t-139.5 137t-192 50.5t-192 -50.5t-139.5 -137t-51.5 -189.5q0 -70 25 -134q3 -8 0 -16t-11 -11t-16 0.5t-11 11.5q-1 2 -2 7h-5q-45 0 -77 31.5t-32 75.5q0 41 27 71.5t68 35.5q26 149 143.5 247.5t273.5 98.5t273.5 -98.5t143.5 -247.5q41 -5 68 -35.5
t27 -71.5q0 -44 -32 -75.5t-77 -31.5h-5q-30 -82 -91 -146t-143 -98q-1 -21 -16.5 -35.5t-37.5 -14.5t-37.5 15t-15.5 37t15.5 37t37.5 15q23 0 39 -16v0zM512 302q-71 0 -133 23q-19 7 -36 16q-5 4 -11 7q-12 9 -24 0t-7 -23q22 -67 80.5 -109t130.5 -42t130.5 42t80.5 109
q5 14 -7 23t-24 0q-4 -2 -11 -7q-17 -8 -36 -16q-62 -23 -133 -23v0v0zM512 302z" />
    <glyph glyph-name="shouji" unicode="&#xe61b;" 
d="M703 835h-382q-43 0 -73.5 -30.5t-30.5 -73.5v-693q0 -43 30.5 -73.5t73.5 -30.5h382q43 0 73.5 30.5t30.5 73.5v693q0 43 -30.5 73.5t-73.5 30.5zM477 800h70q7 0 12 -5t5 -12t-5 -12t-12 -5h-70q-7 0 -12 5t-5 12t5 12t12 5zM512 -24q-18 0 -31 13t-13 31.5t13 31.5
t31 13t31 -13t13 -31.5t-13 -31.5t-31 -13v0zM737 124q0 -7 -5 -12t-12 -5h-416q-7 0 -12 5t-5 12v590q0 7 5 12t12 5h416q7 0 12 -5t5 -12v-590z" />
    <glyph glyph-name="jishufuwu" unicode="&#xe7df;" 
d="M788 261q-10 0 -20 -2l-104 125l104 125q38 -8 70.5 12.5t41 58.5t-12 71t-58.5 41.5t-70.5 -12.5t-41.5 -59q-7 -29 5 -57t38 -43l-95 -114l-111 134q-8 9 -19.5 10t-20.5 -6q-3 -2 -4 -4l-111 -134l-94 113q33 21 42 58.5t-11 70.5t-58 42.5t-71 -11t-42.5 -58
t11.5 -70.5q15 -26 43 -38t57 -5l104 -125l-104 -125q-38 8 -70.5 -12.5t-41 -58.5t12 -71t58.5 -41.5t71 12.5t41 59q7 29 -5 57t-37 43l94 114l63 -76q-26 -29 -23.5 -67.5t31.5 -64.5t68 -23.5t65 31.5q23 27 23 62.5t-23 61.5l62 76l95 -114q-33 -20 -42.5 -57.5
t11 -70.5t58 -42.5t71 11t42.5 58t-12 70.5q-12 21 -33.5 33t-46.5 12zM560 304q-22 13 -48 13t-48 -13l-66 80l114 138l114 -138z" />
    <glyph glyph-name="ZHicon-" unicode="&#xe624;" 
d="M512 845q-93 0 -178.5 -36.5t-147.5 -98.5t-98.5 -147.5t-36.5 -178.5t36.5 -178.5t98.5 -147.5t147.5 -98.5t178.5 -36.5t178.5 36.5t147.5 98.5t98.5 147.5t36.5 178.5t-36.5 178.5t-98.5 147.5t-147.5 98.5t-178.5 36.5zM512 -26q-111 0 -205.5 55t-149.5 149.5
t-55 205.5t55 205.5t149.5 149.5t205.5 55t205.5 -55t149.5 -149.5t55 -205.5t-55 -205.5t-149.5 -149.5t-205.5 -55zM691 410q12 0 19 7t7 18.5t-7 18.5t-19 7h-118l128 128q8 7 8 18t-7 18t-18 7t-18 -7l-154 -154l-154 154q-7 7 -18 7t-18 -7t-7 -18t8 -18l130 -131h-120
q-12 0 -19 -7t-7 -18.5t7 -18.5t19 -7h153v-102h-153q-12 0 -19 -7t-7 -18.5t7 -19t19 -7.5h153v-181q0 -12 7 -19t19 -7t19 7t7 19v181h153q12 0 19 7.5t7 19t-7 18.5t-19 7h-153v102h153v3z" />
    <glyph glyph-name="pinggu" unicode="&#xe611;" 
d="M418 -106h-288q-51 0 -87 36t-36 87v756q0 51 36 87t87 36h722q50 0 86 -36t36 -87v-354q0 -14 -9.5 -23.5t-23.5 -9.5t-23.5 9.5t-9.5 23.5v354q0 23 -16.5 40t-39.5 17h-722q-24 0 -40.5 -17t-16.5 -40v-756q0 -24 16.5 -40.5t40.5 -16.5h288q14 0 23.5 -9.5t9.5 -23
t-9.5 -23.5t-23.5 -10zM573 168h-390q-14 0 -23.5 10t-9.5 23.5t9.5 23t23.5 9.5h390q14 0 23.5 -9.5t9.5 -23t-9.5 -23.5t-23.5 -10zM527.5 281q-13.5 0 -23.5 10l-152 152l-146 -146q-9 -10 -23 -10t-23.5 9.5t-9.5 23.5t10 23l169 170q10 9 23.5 9t23.5 -9l151 -152
l242 241q9 10 22.5 10t23.5 -9.5t10 -23.5t-10 -23l-264 -265q-10 -10 -23.5 -10zM792 414q-14 0 -23.5 9.5t-9.5 23.5v99h-144q-14 0 -23.5 9.5t-9.5 23.5t9.5 23.5t23.5 9.5h177q14 0 23.5 -9.5t9.5 -23.5v-132q0 -14 -9.5 -23.5t-23.5 -9.5zM697 -127h-124q-13 0 -23 9.5
t-10 23.5v119q0 14 10 23l293 293q10 10 23.5 10t23.5 -10l118 -118q9 -9 9 -23t-9 -23l-72 -72q-10 -10 -23.5 -10t-23.5 10l-58 58q-9 9 -9 23t9.5 23.5t23 9.5t23.5 -10l35 -34l25 25l-72 71l-260 -260v-72h78l151 151q10 10 23.5 10t23 -9.5t9.5 -23.5t-9 -23l-161 -162
q-10 -9 -24 -9z" />
    <glyph glyph-name="gongsi" unicode="&#xe67d;" 
d="M597 619h278q26 0 45 -19t19 -45v-683h-854v960v0q0 26 19 45t45 19h385v0q26 0 44.5 -18.5t18.5 -45.5v0v-213zM256 405h192q18 0 30.5 12.5t12.5 30.5t-12.5 30.5t-30.5 12.5h-192q-18 0 -30.5 -12.5t-12.5 -30.5t12.5 -30.5t30.5 -12.5zM256 192h192v0q18 0 30.5 12.5
t12.5 30t-12.5 30t-30.5 12.5v0h-192v0q-18 0 -30.5 -12.5t-12.5 -30t12.5 -30t30.5 -12.5v0zM245 619h192v0q18 0 30.5 12.5t12.5 30t-12.5 30t-30.5 12.5v0h-192v0q-17 0 -29.5 -12.5t-12.5 -30t12.5 -30t29.5 -12.5v0z" />
    <glyph glyph-name="zhangdan" unicode="&#xe67f;" 
d="M301 195q-14 0 -24 -10.5t-10 -24.5t10 -24t24 -10h126q-4 22 -4 46v0q0 11 1 23h-123zM528 400h-227q-14 0 -24 -10t-10 -24t10 -24t24 -10h168q46 72 121 109zM736 730h34q28 0 48 -20t20 -48v-214q37 -16 68 -41v255q0 57 -40 97t-96 40h-34q-15 0 -25 -10t-10 -24.5
t10 -24.5t25 -10zM397 730h171q21 0 36 15t15 36.5t-15 36.5t-36 15h-171q-21 0 -36 -15t-15 -36t15 -36.5t36 -15.5zM463 22h-264q-29 0 -49 20.5t-20 48.5v571q0 28 20 48t49 20h34q14 0 24 10t10 24.5t-10 24.5t-24 10h-34q-57 0 -97 -40t-40 -97v-571q0 -57 40 -97
t97 -40h318q-60 57 -83 136zM301 537h366q14 0 24 10t10 24.5t-10 24.5t-24 10h-366q-14 0 -24 -10t-10 -24.5t10 -24.5t24 -10zM721 410q-98 0 -167 -70t-69 -168.5t69 -168t167 -69.5t167.5 69.5t69.5 168t-69.5 168.5t-167.5 70zM876 187q0 -5 -3.5 -8.5t-9.5 -3.5v0
h-122v-52h122q6 0 9.5 -3.5t3.5 -8.5v-23q0 -5 -3.5 -8.5t-9.5 -3.5h-123v-47q0 -5 -3.5 -8.5t-9.5 -3.5h-22q-6 0 -9.5 3.5t-3.5 8.5v47h-113q-5 0 -9 3.5t-4 8.5v23q0 5 4 8.5t9 3.5h113v52h-113q-5 0 -9 3.5t-4 8.5v22q0 5 4 9t9 4h76l-42 68q-4 5 -2.5 15t10.5 15
q8 4 15 3.5t12 -3.5l4 -3l63 -95h3l60 95q5 8 15 10t20 -5q8 -6 9.5 -13t-0.5 -11l-2 -4l-43 -72h86q6 0 9.5 -4t3.5 -9v-22z" />
    <glyph glyph-name="erp" unicode="&#xe669;" 
d="M912 180h-800v520h800v-520zM147 215h730v450h-730v-450zM472 198h80v-117h-80v117zM206 111h613v-43h-613v43zM344 386h92v-13h-108v144h104v-14h-88v-49h83v-14h-83v-54zM589 373h-22l-50 65h-38v-65h-17v144h67q47 -2 49 -39q0 -37 -43 -40zM479 503v-51h47
q35 1 35 27q-1 23 -35 23h-47v1zM668 431h-45v-58h-16v144h62q44 -2 49 -43q-1 -42 -50 -43zM665 503h-42v-57h42q35 0 35 29q-1 27 -35 28z" />
    <glyph glyph-name="youjian" unicode="&#xe622;" 
d="M880 58h-734q-34 0 -58 24t-24 58v490q0 34 24 57.5t58 23.5h734q34 0 58 -23.5t24 -57.5v-490q0 -34 -24 -58t-58 -24zM840 140l-234 205l-93 -83l-93 83l-234 -205h654zM146 181l229 204l-229 204v-408zM186 630l327 -286l327 286h-654zM880 589l-229 -204l229 -204
v408z" />
    <glyph glyph-name="sanjiao" unicode="&#xe600;" 
d="M937 838q20 0 26.5 -15.5t-3.5 -37.5l-422 -833q-10 -22 -26 -22t-26 22l-422 833q-10 22 -3.5 37.5t26.5 15.5h850z" />
    <glyph glyph-name="wangguan" unicode="&#xeaf2;" 
d="M895 71h-765v0q-9 0 -13 8l-3 131h797l-3 -132q-4 -7 -13 -7v0v0zM184 682q1 15 14 15h628v0q6 0 10 -4t5 -9l62 -417h-783l64 415v0zM967 225l-70 465q-2 27 -22.5 45.5t-48.5 18.5h-628q-28 0 -48 -19t-23 -47l-70 -453v-5l3 -160l1 -4q7 -23 26 -37.5t43 -14.5h765v0
q24 0 43 14t25 37l2 4l3 151l-1 5v0zM839 156h-85q-12 0 -20 -8t-8 -20t8 -20.5t20 -8.5h85q12 0 20.5 8.5t8.5 20.5t-8.5 20t-20.5 8zM654 156h-14q-12 0 -20 -8t-8 -20t8 -20.5t20 -8.5h14q12 0 20.5 8.5t8.5 20.5t-8.5 20t-20.5 8zM541 156h-15q-11 0 -19.5 -8t-8.5 -20
t8.5 -20.5t19.5 -8.5h15q11 0 19.5 8.5t8.5 20.5t-8.5 20t-19.5 8z" />
    <glyph glyph-name="edit" unicode="&#xe616;" 
d="M772 475v-293q0 -25 -18 -42.5t-43 -17.5h-414q-25 0 -43 17.5t-18 42.5v415q0 25 18 43t43 18h302l56 55h-373q-42 0 -72 -29.5t-30 -71.5v-445q0 -41 30 -71t72 -30h444q42 0 72 30t30 71v363l-56 -55v0zM670 635l-221 -221q-17 -16 -41 -70t-12 -66q13 -12 67.5 11
t70.5 40l221 221zM817 683l-14 14q-14 15 -34 16t-33 -12l-33 -32l86 -86l32 32q14 13 12.5 33t-16.5 35z" />
    <glyph glyph-name="duigoudown" unicode="&#xe71;" horiz-adv-x="1968" 
d="M864 -80q-20 20 -34 54t-14 62t14 62t34 54l698 696q19 17 51 29.5t58 12.5q68 0 116 -48.5t48 -116.5q0 -26 -12.5 -58t-29.5 -51l-696 -696q-20 -20 -54 -34t-62 -14t-62.5 14t-54.5 34zM864 -80l-695 696q-18 19 -30 51t-12 58q0 68 48 116.5t116 48.5q26 0 58 -12.5
t51 -29.5l697 -696q20 -20 33.5 -53.5t13.5 -61.5q0 -68 -48 -116.5t-116 -48.5q-28 0 -62 14t-54 34z" />
  </font>
</defs>
</svg>
